# xmcd CD database file
#
# Track frame offsets:
#	150
#	14913
#	29057
#	44033
#	56925
#	67233
#	77196
#	90503
#	101820
#	115621
#
# Disc length: 1678 seconds
#
# Revision: 0
# Processed by: cddbd v1.5.2PL0 Copyright (c) Steve Scherf et al.
# Submitted via: CDex 1.70beta2
#
DISCID=96068c0a
DTITLE=WSOC - Wild Side of Country - Rebel Country
DYEAR=1900
DGENRE=Country
TTITLE0=there ain't no good chain gang - Waylon Jennings and Johnny Cash
TTITLE1=ride me down easy - David Allan Coe
TTITLE2=the cold hard facts of life - Porter Wagoner
TTITLE3=the fightin' side of me - Merle Haggard
TTITLE4=live fast love hard die young - Faron Young
TTITLE5=honky tonk blues - Hank Williams
TTITLE6=the wild side of life - Hank thompson
TTITLE7=it wasn't god who made honky tonk angels -Kitty Wells
TTITLE8=back street affair - Webb Pierce
TTITLE9=slipping around - Floyd Tillman
EXTD=
EXTT0=
EXTT1=
EXTT2=
EXTT3=
EXTT4=
EXTT5=
EXTT6=
EXTT7=
EXTT8=
EXTT9=
PLAYORDER=
